<svg width="875" height="596" viewBox="0 0 875 596" fill="none" xmlns="http://www.w3.org/2000/svg">
<path d="M23.68 227.327C23.68 229.801 23.936 231.593 24.448 232.703C24.96 233.812 25.8987 234.58 27.264 235.007C28.6293 235.348 30.848 235.519 33.92 235.519H47.872C52.736 235.519 56.6187 234.025 59.52 231.039C62.4213 228.052 64.3413 223.913 65.28 218.623C65.28 218.367 65.4933 218.281 65.92 218.367C66.432 218.367 66.688 218.495 66.688 218.751C65.92 225.833 65.536 231.679 65.536 236.287C65.536 236.969 65.408 237.481 65.152 237.823C64.896 238.079 64.384 238.207 63.616 238.207H4.48C4.30933 238.207 4.224 237.951 4.224 237.439C4.224 236.927 4.30933 236.671 4.48 236.671C7.72267 236.671 10.0693 236.457 11.52 236.031C13.056 235.604 14.08 234.793 14.592 233.599C15.104 232.319 15.36 230.399 15.36 227.839V168.575C15.36 166.015 15.104 164.137 14.592 162.943C14.08 161.748 13.056 160.937 11.52 160.511C10.0693 159.999 7.72267 159.743 4.48 159.743C4.30933 159.743 4.224 159.487 4.224 158.975C4.224 158.463 4.30933 158.207 4.48 158.207L10.752 158.335C14.336 158.505 17.2373 158.591 19.456 158.591C21.8453 158.591 24.832 158.505 28.416 158.335L34.56 158.207C34.816 158.207 34.944 158.463 34.944 158.975C34.944 159.487 34.816 159.743 34.56 159.743C31.4027 159.743 29.056 159.999 27.52 160.511C25.984 160.937 24.96 161.791 24.448 163.071C23.936 164.265 23.68 166.143 23.68 168.703V227.327ZM122.978 171.903C124.855 168.916 125.794 166.399 125.794 164.351C125.794 161.279 123.49 159.743 118.882 159.743C118.711 159.743 118.626 159.487 118.626 158.975C118.626 158.463 118.711 158.207 118.882 158.207L124.898 158.335C128.141 158.505 131.127 158.591 133.858 158.591C135.309 158.591 137.058 158.505 139.106 158.335L143.842 158.207C144.013 158.207 144.098 158.463 144.098 158.975C144.098 159.487 144.013 159.743 143.842 159.743C140.77 159.743 137.655 160.895 134.498 163.199C131.341 165.417 128.525 168.489 126.05 172.415L105.954 203.263L103.778 201.343L122.978 171.903ZM79.33 169.599C76.9407 165.929 74.6793 163.369 72.546 161.919C70.4127 160.468 67.938 159.743 65.122 159.743C64.866 159.743 64.738 159.487 64.738 158.975C64.738 158.463 64.866 158.207 65.122 158.207C66.146 158.207 67.682 158.292 69.73 158.463L74.21 158.591C77.1113 158.591 80.7807 158.505 85.218 158.335L92.13 158.207C92.3007 158.207 92.386 158.463 92.386 158.975C92.386 159.487 92.3007 159.743 92.13 159.743C87.6927 159.743 85.474 160.639 85.474 162.431C85.474 163.369 85.9007 164.393 86.754 165.503L108.642 197.631L102.37 203.391L79.33 169.599ZM108.898 197.375V227.839C108.898 230.484 109.154 232.404 109.666 233.599C110.178 234.793 111.159 235.604 112.61 236.031C114.146 236.457 116.535 236.671 119.778 236.671C120.034 236.671 120.162 236.927 120.162 237.439C120.162 237.951 120.034 238.207 119.778 238.207C117.133 238.207 115.085 238.164 113.634 238.079L104.674 237.951L95.842 238.079C94.306 238.164 92.2153 238.207 89.57 238.207C89.314 238.207 89.186 237.951 89.186 237.439C89.186 236.927 89.314 236.671 89.57 236.671C92.8127 236.671 95.1593 236.457 96.61 236.031C98.146 235.604 99.17 234.793 99.682 233.599C100.279 232.319 100.578 230.399 100.578 227.839V198.527L108.898 197.375ZM162.112 200.447H196.032L196.928 203.007H160.832L162.112 200.447ZM225.472 236.671C225.813 236.671 225.984 236.927 225.984 237.439C225.984 237.951 225.813 238.207 225.472 238.207C223.851 238.207 221.333 238.121 217.92 237.951C214.507 237.78 212.032 237.695 210.496 237.695C208.619 237.695 206.229 237.78 203.328 237.951C200.597 238.121 198.507 238.207 197.056 238.207C196.715 238.207 196.544 237.951 196.544 237.439C196.544 236.927 196.715 236.671 197.056 236.671C200.299 236.671 202.603 236.372 203.968 235.775C205.419 235.177 206.144 234.111 206.144 232.575C206.144 231.295 205.632 229.503 204.608 227.199L176.192 167.167L179.392 163.199L154.56 221.951C153.365 224.852 152.768 227.241 152.768 229.119C152.768 234.153 156.949 236.671 165.312 236.671C165.739 236.671 165.952 236.927 165.952 237.439C165.952 237.951 165.739 238.207 165.312 238.207C163.776 238.207 161.557 238.121 158.656 237.951C155.413 237.78 152.597 237.695 150.208 237.695C147.989 237.695 145.429 237.78 142.528 237.951C139.968 238.121 137.835 238.207 136.128 238.207C135.701 238.207 135.488 237.951 135.488 237.439C135.488 236.927 135.701 236.671 136.128 236.671C138.517 236.671 140.523 236.244 142.144 235.391C143.851 234.452 145.429 232.873 146.88 230.655C148.416 228.351 150.08 225.065 151.872 220.799L178.88 157.055C179.051 156.799 179.349 156.671 179.776 156.671C180.203 156.671 180.459 156.799 180.544 157.055L210.752 220.671C213.653 226.985 216.128 231.252 218.176 233.471C220.224 235.604 222.656 236.671 225.472 236.671ZM241.235 161.151L244.179 161.407V224.255C244.179 228.692 244.947 231.892 246.483 233.855C248.104 235.732 250.664 236.671 254.163 236.671C254.419 236.671 254.547 236.927 254.547 237.439C254.547 237.951 254.419 238.207 254.163 238.207C252.03 238.207 250.408 238.164 249.299 238.079L242.899 237.951L236.371 238.079C235.176 238.164 233.427 238.207 231.123 238.207C230.952 238.207 230.867 237.951 230.867 237.439C230.867 236.927 230.952 236.671 231.123 236.671C234.792 236.671 237.395 235.732 238.931 233.855C240.467 231.892 241.235 228.692 241.235 224.255V161.151ZM305.747 239.743C305.747 239.913 305.534 240.041 305.107 240.127C304.68 240.212 304.382 240.169 304.211 239.999L245.331 168.703C242.6 165.375 240.083 163.071 237.779 161.791C235.56 160.425 233.342 159.743 231.123 159.743C230.867 159.743 230.739 159.487 230.739 158.975C230.739 158.463 230.867 158.207 231.123 158.207L235.859 158.335C236.883 158.42 238.291 158.463 240.083 158.463C241.96 158.463 243.496 158.42 244.691 158.335C245.886 158.249 246.824 158.207 247.507 158.207C248.104 158.207 248.574 158.377 248.915 158.719C249.342 158.975 249.811 159.572 250.323 160.511C251.347 162.047 252.414 163.497 253.523 164.863L304.723 227.711L305.747 239.743ZM305.747 239.743L302.803 235.775V172.287C302.803 167.849 302.035 164.649 300.499 162.687C299.048 160.724 296.574 159.743 293.075 159.743C292.904 159.743 292.819 159.487 292.819 158.975C292.819 158.463 292.904 158.207 293.075 158.207L298.067 158.335C300.627 158.505 302.718 158.591 304.339 158.591C305.875 158.591 308.008 158.505 310.739 158.335L315.987 158.207C316.243 158.207 316.371 158.463 316.371 158.975C316.371 159.487 316.243 159.743 315.987 159.743C312.403 159.743 309.8 160.724 308.179 162.687C306.558 164.649 305.747 167.849 305.747 172.287V239.743ZM334.235 161.151L337.179 161.407V224.255C337.179 228.692 337.947 231.892 339.483 233.855C341.104 235.732 343.664 236.671 347.163 236.671C347.419 236.671 347.547 236.927 347.547 237.439C347.547 237.951 347.419 238.207 347.163 238.207C345.03 238.207 343.408 238.164 342.299 238.079L335.899 237.951L329.371 238.079C328.176 238.164 326.427 238.207 324.123 238.207C323.952 238.207 323.867 237.951 323.867 237.439C323.867 236.927 323.952 236.671 324.123 236.671C327.792 236.671 330.395 235.732 331.931 233.855C333.467 231.892 334.235 228.692 334.235 224.255V161.151ZM398.747 239.743C398.747 239.913 398.534 240.041 398.107 240.127C397.68 240.212 397.382 240.169 397.211 239.999L338.331 168.703C335.6 165.375 333.083 163.071 330.779 161.791C328.56 160.425 326.342 159.743 324.123 159.743C323.867 159.743 323.739 159.487 323.739 158.975C323.739 158.463 323.867 158.207 324.123 158.207L328.859 158.335C329.883 158.42 331.291 158.463 333.083 158.463C334.96 158.463 336.496 158.42 337.691 158.335C338.886 158.249 339.824 158.207 340.507 158.207C341.104 158.207 341.574 158.377 341.915 158.719C342.342 158.975 342.811 159.572 343.323 160.511C344.347 162.047 345.414 163.497 346.523 164.863L397.723 227.711L398.747 239.743ZM398.747 239.743L395.803 235.775V172.287C395.803 167.849 395.035 164.649 393.499 162.687C392.048 160.724 389.574 159.743 386.075 159.743C385.904 159.743 385.819 159.487 385.819 158.975C385.819 158.463 385.904 158.207 386.075 158.207L391.067 158.335C393.627 158.505 395.718 158.591 397.339 158.591C398.875 158.591 401.008 158.505 403.739 158.335L408.987 158.207C409.243 158.207 409.371 158.463 409.371 158.975C409.371 159.487 409.243 159.743 408.987 159.743C405.403 159.743 402.8 160.724 401.179 162.687C399.558 164.649 398.747 167.849 398.747 172.287V239.743ZM417.379 238.207C417.208 238.207 417.123 237.951 417.123 237.439C417.123 236.927 417.208 236.671 417.379 236.671C420.622 236.671 422.968 236.457 424.419 236.031C425.955 235.604 426.979 234.793 427.491 233.599C428.088 232.319 428.387 230.399 428.387 227.839V168.575C428.387 166.015 428.088 164.137 427.491 162.943C426.979 161.748 425.955 160.937 424.419 160.511C422.968 159.999 420.622 159.743 417.379 159.743C417.208 159.743 417.123 159.487 417.123 158.975C417.123 158.463 417.208 158.207 417.379 158.207H468.835C469.603 158.207 469.987 158.591 469.987 159.359L470.243 175.103C470.243 175.359 469.987 175.529 469.475 175.615C469.048 175.615 468.835 175.487 468.835 175.231C468.579 170.708 467.214 167.209 464.739 164.735C462.264 162.175 458.979 160.895 454.883 160.895H447.075C444.088 160.895 441.87 161.151 440.419 161.663C438.968 162.089 437.944 162.857 437.347 163.967C436.835 165.076 436.579 166.825 436.579 169.215V227.327C436.579 229.631 436.835 231.38 437.347 232.575C437.944 233.684 438.926 234.452 440.291 234.879C441.656 235.305 443.79 235.519 446.691 235.519H456.931C461.027 235.519 464.44 234.068 467.171 231.167C469.902 228.265 471.736 224.255 472.675 219.135C472.675 218.964 472.846 218.879 473.187 218.879C473.443 218.879 473.656 218.964 473.827 219.135C474.083 219.22 474.211 219.305 474.211 219.391C473.443 224.767 473.059 230.399 473.059 236.287C473.059 236.969 472.888 237.481 472.547 237.823C472.291 238.079 471.779 238.207 471.011 238.207H417.379ZM463.843 208.383C463.843 204.628 462.904 201.94 461.027 200.319C459.235 198.697 456.206 197.887 451.939 197.887H432.739V195.199H452.323C456.419 195.199 459.32 194.516 461.027 193.151C462.819 191.785 463.715 189.481 463.715 186.239C463.715 186.068 463.971 185.983 464.483 185.983C464.995 185.983 465.251 186.068 465.251 186.239L465.123 196.607C465.123 199.081 465.166 200.959 465.251 202.239L465.379 208.383C465.379 208.553 465.123 208.639 464.611 208.639C464.099 208.639 463.843 208.553 463.843 208.383ZM491.761 157.183C494.406 157.183 496.454 158.121 497.905 159.999C499.356 161.876 500.081 164.649 500.081 168.319C500.081 172.159 499.228 175.785 497.521 179.199C495.9 182.612 493.51 186.025 490.353 189.439C490.268 189.524 490.14 189.567 489.969 189.567C489.713 189.567 489.5 189.439 489.329 189.183C489.158 188.927 489.158 188.713 489.329 188.543C491.206 185.812 492.486 183.295 493.169 180.991C493.852 178.601 494.193 175.913 494.193 172.927C494.193 170.623 493.894 168.788 493.297 167.423C492.7 166.057 491.846 164.82 490.737 163.711L495.473 162.815C495.558 164.265 495.174 165.375 494.321 166.143C493.468 166.911 492.358 167.295 490.993 167.295C489.457 167.295 488.22 166.825 487.281 165.887C486.342 164.948 485.873 163.753 485.873 162.303C485.873 158.889 487.836 157.183 491.761 157.183ZM523.81 173.183C523.81 176.511 524.621 179.412 526.242 181.887C527.863 184.361 529.826 186.452 532.13 188.159C534.434 189.78 537.677 191.871 541.858 194.431C546.295 197.076 549.751 199.295 552.226 201.087C554.701 202.879 556.791 205.183 558.498 207.999C560.29 210.729 561.186 214.015 561.186 217.855C561.186 221.951 560.162 225.663 558.114 228.991C556.066 232.319 553.037 234.964 549.026 236.927C545.101 238.804 540.365 239.743 534.818 239.743C528.247 239.743 522.231 238.249 516.77 235.263C516.343 235.007 516.045 234.708 515.874 234.367C515.789 234.025 515.703 233.513 515.618 232.831L513.954 215.423C513.869 215.081 514.039 214.868 514.466 214.783C514.978 214.697 515.277 214.825 515.362 215.167C516.642 221.225 519.159 226.516 522.914 231.039C526.669 235.476 531.618 237.695 537.762 237.695C542.029 237.695 545.613 236.543 548.514 234.239C551.501 231.849 552.994 228.095 552.994 222.975C552.994 219.135 552.141 215.807 550.434 212.991C548.727 210.175 546.637 207.871 544.162 206.079C541.773 204.201 538.487 202.025 534.306 199.551C530.21 197.076 526.967 194.943 524.578 193.151C522.274 191.359 520.311 189.097 518.69 186.367C517.069 183.636 516.258 180.436 516.258 176.767C516.258 172.5 517.367 168.873 519.586 165.887C521.89 162.815 524.834 160.553 528.418 159.103C532.087 157.567 535.97 156.799 540.066 156.799C545.101 156.799 550.093 157.823 555.042 159.871C556.322 160.297 556.962 161.023 556.962 162.047L557.858 176.639C557.858 177.065 557.602 177.279 557.09 177.279C556.663 177.279 556.407 177.108 556.322 176.767C555.725 172.329 553.933 168.233 550.946 164.479C547.959 160.639 543.65 158.719 538.018 158.719C533.239 158.719 529.655 160.127 527.266 162.943C524.962 165.673 523.81 169.087 523.81 173.183Z" fill="black"/>
<path d="M43.056 496.327H60.016L60.464 497.607H42.416L43.056 496.327ZM74.736 514.439C74.9067 514.439 74.992 514.567 74.992 514.823C74.992 515.079 74.9067 515.207 74.736 515.207C73.9253 515.207 72.6667 515.164 70.96 515.079C69.2533 514.993 68.016 514.951 67.248 514.951C66.3093 514.951 65.1147 514.993 63.664 515.079C62.2987 515.164 61.2533 515.207 60.528 515.207C60.3573 515.207 60.272 515.079 60.272 514.823C60.272 514.567 60.3573 514.439 60.528 514.439C62.1493 514.439 63.3013 514.289 63.984 513.991C64.7093 513.692 65.072 513.159 65.072 512.391C65.072 511.751 64.816 510.855 64.304 509.703L50.096 479.687L51.696 477.703L39.28 507.079C38.6827 508.529 38.384 509.724 38.384 510.663C38.384 513.18 40.4747 514.439 44.656 514.439C44.8693 514.439 44.976 514.567 44.976 514.823C44.976 515.079 44.8693 515.207 44.656 515.207C43.888 515.207 42.7787 515.164 41.328 515.079C39.7067 514.993 38.2987 514.951 37.104 514.951C35.9947 514.951 34.7147 514.993 33.264 515.079C31.984 515.164 30.9173 515.207 30.064 515.207C29.8507 515.207 29.744 515.079 29.744 514.823C29.744 514.567 29.8507 514.439 30.064 514.439C31.2587 514.439 32.2613 514.225 33.072 513.799C33.9253 513.329 34.7147 512.54 35.44 511.431C36.208 510.279 37.04 508.636 37.936 506.503L51.44 474.631C51.5253 474.503 51.6747 474.439 51.888 474.439C52.1013 474.439 52.2293 474.503 52.272 474.631L67.376 506.439C68.8267 509.596 70.064 511.729 71.088 512.839C72.112 513.905 73.328 514.439 74.736 514.439ZM82.6175 476.679L84.0895 476.807V508.231C84.0895 510.449 84.4735 512.049 85.2415 513.031C86.0522 513.969 87.3322 514.439 89.0815 514.439C89.2095 514.439 89.2735 514.567 89.2735 514.823C89.2735 515.079 89.2095 515.207 89.0815 515.207C88.0148 515.207 87.2042 515.185 86.6495 515.143L83.4495 515.079L80.1855 515.143C79.5882 515.185 78.7135 515.207 77.5615 515.207C77.4762 515.207 77.4335 515.079 77.4335 514.823C77.4335 514.567 77.4762 514.439 77.5615 514.439C79.3962 514.439 80.6975 513.969 81.4655 513.031C82.2335 512.049 82.6175 510.449 82.6175 508.231V476.679ZM114.874 515.975C114.874 516.06 114.767 516.124 114.554 516.167C114.34 516.209 114.191 516.188 114.106 516.103L84.6655 480.455C83.3002 478.791 82.0415 477.639 80.8895 476.999C79.7802 476.316 78.6708 475.975 77.5615 475.975C77.4335 475.975 77.3695 475.847 77.3695 475.591C77.3695 475.335 77.4335 475.207 77.5615 475.207L79.9295 475.271C80.4415 475.313 81.1455 475.335 82.0415 475.335C82.9802 475.335 83.7482 475.313 84.3455 475.271C84.9428 475.228 85.4122 475.207 85.7535 475.207C86.0522 475.207 86.2868 475.292 86.4575 475.463C86.6708 475.591 86.9055 475.889 87.1615 476.359C87.6735 477.127 88.2068 477.852 88.7615 478.535L114.362 509.959L114.874 515.975ZM114.874 515.975L113.402 513.991V482.247C113.402 480.028 113.018 478.428 112.25 477.447C111.524 476.465 110.287 475.975 108.538 475.975C108.452 475.975 108.41 475.847 108.41 475.591C108.41 475.335 108.452 475.207 108.538 475.207L111.034 475.271C112.314 475.356 113.359 475.399 114.17 475.399C114.938 475.399 116.004 475.356 117.37 475.271L119.994 475.207C120.122 475.207 120.186 475.335 120.186 475.591C120.186 475.847 120.122 475.975 119.994 475.975C118.202 475.975 116.9 476.465 116.09 477.447C115.279 478.428 114.874 480.028 114.874 482.247V515.975ZM140.83 515.463C139.592 515.463 138.163 515.399 136.542 515.271C135.944 515.228 135.176 515.185 134.238 515.143C133.342 515.1 132.339 515.079 131.23 515.079L126.878 515.143C126.11 515.185 125.043 515.207 123.678 515.207C123.592 515.207 123.549 515.079 123.549 514.823C123.549 514.567 123.592 514.439 123.678 514.439C125.299 514.439 126.472 514.332 127.198 514.119C127.966 513.905 128.478 513.5 128.734 512.903C129.032 512.263 129.182 511.303 129.182 510.023V480.391C129.182 479.111 129.054 478.172 128.798 477.575C128.542 476.977 128.03 476.572 127.262 476.359C126.536 476.103 125.363 475.975 123.742 475.975C123.656 475.975 123.614 475.847 123.614 475.591C123.614 475.335 123.656 475.207 123.742 475.207L126.942 475.271C128.734 475.356 130.163 475.399 131.23 475.399C132.851 475.399 134.451 475.335 136.03 475.207C137.907 475.121 139.208 475.079 139.934 475.079C144.371 475.079 148.296 475.932 151.71 477.639C155.123 479.345 157.768 481.671 159.646 484.615C161.566 487.559 162.526 490.865 162.526 494.535C162.526 498.673 161.544 502.343 159.582 505.543C157.662 508.7 155.038 511.153 151.71 512.903C148.382 514.609 144.755 515.463 140.83 515.463ZM140.19 514.503C143.603 514.503 146.632 513.799 149.278 512.391C151.923 510.94 153.971 508.828 155.422 506.055C156.915 503.239 157.662 499.868 157.662 495.943C157.662 492.231 156.958 488.86 155.55 485.831C154.142 482.801 152.136 480.412 149.534 478.663C146.931 476.913 143.923 476.039 140.51 476.039C138.675 476.039 137.246 476.145 136.222 476.359C135.24 476.572 134.515 476.999 134.046 477.639C133.576 478.279 133.342 479.239 133.342 480.519V509.319C133.342 510.599 133.512 511.601 133.854 512.327C134.238 513.052 134.92 513.607 135.902 513.991C136.926 514.332 138.355 514.503 140.19 514.503ZM200.592 492.615C203.066 492.615 205.264 493.084 207.184 494.023C209.104 494.961 210.576 496.263 211.6 497.927C212.666 499.548 213.2 501.383 213.2 503.431C213.2 505.692 212.645 507.74 211.536 509.575C210.426 511.409 208.89 512.86 206.928 513.927C205.008 514.951 202.853 515.463 200.464 515.463C199.056 515.463 197.52 515.399 195.856 515.271C195.258 515.228 194.554 515.185 193.744 515.143C192.933 515.1 192.037 515.079 191.056 515.079L186.704 515.143C185.936 515.185 184.848 515.207 183.44 515.207C183.354 515.207 183.312 515.079 183.312 514.823C183.312 514.567 183.354 514.439 183.44 514.439C185.061 514.439 186.256 514.332 187.024 514.119C187.792 513.863 188.325 513.436 188.624 512.839C188.922 512.241 189.072 511.303 189.072 510.023V480.391C189.072 479.111 188.922 478.172 188.624 477.575C188.368 476.977 187.856 476.572 187.088 476.359C186.32 476.103 185.146 475.975 183.568 475.975C183.44 475.975 183.376 475.847 183.376 475.591C183.376 475.335 183.44 475.207 183.568 475.207L186.704 475.271C188.496 475.356 189.946 475.399 191.056 475.399C191.824 475.399 192.528 475.377 193.168 475.335C193.85 475.292 194.426 475.249 194.896 475.207C196.261 475.079 197.498 475.015 198.608 475.015C202.192 475.015 204.88 475.804 206.672 477.383C208.464 478.919 209.36 480.945 209.36 483.463C209.36 485.852 208.485 487.921 206.736 489.671C205.029 491.377 202.746 492.593 199.888 493.319L200.592 492.615ZM197.2 475.975C196.048 475.975 195.216 476.06 194.704 476.231C194.192 476.401 193.808 476.807 193.552 477.447C193.296 478.087 193.168 479.111 193.168 480.519V493.063L191.12 492.551C192.954 492.679 194.597 492.743 196.048 492.743C199.162 492.743 201.466 491.953 202.96 490.375C204.453 488.753 205.2 486.62 205.2 483.975C205.2 481.585 204.538 479.665 203.216 478.215C201.936 476.721 199.93 475.975 197.2 475.975ZM199.503 514.311C202.618 514.311 204.922 513.521 206.416 511.943C207.952 510.321 208.72 508.017 208.72 505.031C208.72 501.788 207.76 499.164 205.84 497.159C203.962 495.153 201.36 494.129 198.032 494.087C195.6 494.001 193.36 494.108 191.312 494.407L193.168 493.703V510.023C193.168 511.132 193.317 511.985 193.616 512.583C193.957 513.18 194.576 513.628 195.472 513.927C196.41 514.183 197.754 514.311 199.503 514.311ZM239.799 515.975C235.831 515.975 232.29 515.057 229.175 513.223C226.103 511.345 223.714 508.828 222.007 505.671C220.343 502.471 219.511 498.993 219.511 495.239C219.511 490.844 220.62 487.089 222.839 483.975C225.058 480.817 227.895 478.449 231.351 476.871C234.85 475.292 238.412 474.503 242.039 474.503C246.092 474.503 249.655 475.463 252.727 477.383C255.799 479.26 258.146 481.756 259.767 484.871C261.431 487.985 262.263 491.292 262.263 494.791C262.263 498.673 261.239 502.236 259.191 505.479C257.143 508.721 254.391 511.281 250.935 513.159C247.522 515.036 243.81 515.975 239.799 515.975ZM242.039 514.631C244.94 514.631 247.543 513.927 249.847 512.519C252.194 511.111 254.028 509.063 255.351 506.375C256.716 503.644 257.399 500.38 257.399 496.583C257.399 492.572 256.652 489.009 255.159 485.895C253.666 482.78 251.554 480.348 248.823 478.599C246.135 476.849 242.978 475.975 239.351 475.975C234.658 475.975 230.988 477.489 228.343 480.519C225.698 483.548 224.375 487.708 224.375 492.999C224.375 497.009 225.122 500.679 226.615 504.007C228.108 507.292 230.199 509.895 232.887 511.815C235.575 513.692 238.626 514.631 242.039 514.631ZM284.767 515.463C283.53 515.463 282.1 515.399 280.479 515.271C279.882 515.228 279.114 515.185 278.175 515.143C277.279 515.1 276.276 515.079 275.167 515.079L270.815 515.143C270.047 515.185 268.98 515.207 267.615 515.207C267.53 515.207 267.487 515.079 267.487 514.823C267.487 514.567 267.53 514.439 267.615 514.439C269.236 514.439 270.41 514.332 271.135 514.119C271.903 513.905 272.415 513.5 272.671 512.903C272.97 512.263 273.119 511.303 273.119 510.023V480.391C273.119 479.111 272.991 478.172 272.735 477.575C272.479 476.977 271.967 476.572 271.199 476.359C270.474 476.103 269.3 475.975 267.679 475.975C267.594 475.975 267.551 475.847 267.551 475.591C267.551 475.335 267.594 475.207 267.679 475.207L270.879 475.271C272.671 475.356 274.1 475.399 275.167 475.399C276.788 475.399 278.388 475.335 279.967 475.207C281.844 475.121 283.146 475.079 283.871 475.079C288.308 475.079 292.234 475.932 295.647 477.639C299.06 479.345 301.706 481.671 303.583 484.615C305.503 487.559 306.463 490.865 306.463 494.535C306.463 498.673 305.482 502.343 303.519 505.543C301.599 508.7 298.975 511.153 295.647 512.903C292.319 514.609 288.692 515.463 284.767 515.463ZM284.127 514.503C287.54 514.503 290.57 513.799 293.215 512.391C295.86 510.94 297.908 508.828 299.359 506.055C300.852 503.239 301.599 499.868 301.599 495.943C301.599 492.231 300.895 488.86 299.487 485.831C298.079 482.801 296.074 480.412 293.471 478.663C290.868 476.913 287.86 476.039 284.447 476.039C282.612 476.039 281.183 476.145 280.159 476.359C279.178 476.572 278.452 476.999 277.983 477.639C277.514 478.279 277.279 479.239 277.279 480.519V509.319C277.279 510.599 277.45 511.601 277.791 512.327C278.175 513.052 278.858 513.607 279.839 513.991C280.863 514.332 282.292 514.503 284.127 514.503ZM336.989 482.055C337.928 480.561 338.397 479.303 338.397 478.279C338.397 476.743 337.245 475.975 334.941 475.975C334.856 475.975 334.813 475.847 334.813 475.591C334.813 475.335 334.856 475.207 334.941 475.207L337.949 475.271C339.57 475.356 341.064 475.399 342.429 475.399C343.154 475.399 344.029 475.356 345.053 475.271L347.421 475.207C347.506 475.207 347.549 475.335 347.549 475.591C347.549 475.847 347.506 475.975 347.421 475.975C345.885 475.975 344.328 476.551 342.749 477.703C341.17 478.812 339.762 480.348 338.525 482.311L328.477 497.735L327.389 496.775L336.989 482.055ZM315.165 480.903C313.97 479.068 312.84 477.788 311.773 477.063C310.706 476.337 309.469 475.975 308.061 475.975C307.933 475.975 307.869 475.847 307.869 475.591C307.869 475.335 307.933 475.207 308.061 475.207C308.573 475.207 309.341 475.249 310.365 475.335L312.605 475.399C314.056 475.399 315.89 475.356 318.109 475.271L321.565 475.207C321.65 475.207 321.693 475.335 321.693 475.591C321.693 475.847 321.65 475.975 321.565 475.975C319.346 475.975 318.237 476.423 318.237 477.319C318.237 477.788 318.45 478.3 318.877 478.855L329.821 494.919L326.685 497.799L315.165 480.903ZM329.949 494.791V510.023C329.949 511.345 330.077 512.305 330.333 512.903C330.589 513.5 331.08 513.905 331.805 514.119C332.573 514.332 333.768 514.439 335.389 514.439C335.517 514.439 335.581 514.567 335.581 514.823C335.581 515.079 335.517 515.207 335.389 515.207C334.066 515.207 333.042 515.185 332.317 515.143L327.837 515.079L323.421 515.143C322.653 515.185 321.608 515.207 320.285 515.207C320.157 515.207 320.093 515.079 320.093 514.823C320.093 514.567 320.157 514.439 320.285 514.439C321.906 514.439 323.08 514.332 323.805 514.119C324.573 513.905 325.085 513.5 325.341 512.903C325.64 512.263 325.789 511.303 325.789 510.023V495.367L329.949 494.791ZM388.429 474.503C391.117 474.503 393.378 474.695 395.213 475.079C397.048 475.463 398.882 476.124 400.717 477.063C401.016 477.233 401.186 477.383 401.229 477.511C401.272 477.639 401.336 477.959 401.421 478.471L402.189 486.087C402.189 486.215 402.061 486.3 401.805 486.343C401.592 486.343 401.464 486.279 401.421 486.151C399.458 479.025 395.064 475.463 388.237 475.463C384.653 475.463 381.474 476.252 378.701 477.831C375.97 479.409 373.858 481.671 372.365 484.615C370.872 487.516 370.125 490.908 370.125 494.791C370.125 498.503 370.957 501.916 372.621 505.031C374.285 508.103 376.504 510.535 379.277 512.327C382.093 514.119 385.144 515.015 388.429 515.015C391.928 515.015 394.765 514.161 396.941 512.455C399.117 510.748 400.781 508.145 401.933 504.647C401.933 504.561 402.04 504.519 402.253 504.519C402.552 504.519 402.701 504.583 402.701 504.711L402.061 511.751C402.018 512.263 401.954 512.583 401.869 512.711C401.784 512.839 401.613 512.988 401.357 513.159C399.138 514.225 397.048 514.972 395.085 515.399C393.165 515.825 390.946 516.039 388.429 516.039C383.949 516.039 379.938 515.164 376.397 513.415C372.898 511.623 370.168 509.127 368.205 505.927C366.242 502.727 365.261 499.057 365.261 494.919C365.261 490.908 366.264 487.367 368.269 484.295C370.274 481.18 373.026 478.769 376.525 477.063C380.066 475.356 384.034 474.503 388.429 474.503ZM419.056 496.327H436.016L436.464 497.607H418.416L419.056 496.327ZM450.736 514.439C450.907 514.439 450.992 514.567 450.992 514.823C450.992 515.079 450.907 515.207 450.736 515.207C449.925 515.207 448.667 515.164 446.96 515.079C445.253 514.993 444.016 514.951 443.248 514.951C442.309 514.951 441.115 514.993 439.664 515.079C438.299 515.164 437.253 515.207 436.528 515.207C436.357 515.207 436.272 515.079 436.272 514.823C436.272 514.567 436.357 514.439 436.528 514.439C438.149 514.439 439.301 514.289 439.984 513.991C440.709 513.692 441.072 513.159 441.072 512.391C441.072 511.751 440.816 510.855 440.304 509.703L426.096 479.687L427.696 477.703L415.28 507.079C414.683 508.529 414.384 509.724 414.384 510.663C414.384 513.18 416.475 514.439 420.656 514.439C420.869 514.439 420.976 514.567 420.976 514.823C420.976 515.079 420.869 515.207 420.656 515.207C419.888 515.207 418.779 515.164 417.328 515.079C415.707 514.993 414.299 514.951 413.104 514.951C411.995 514.951 410.715 514.993 409.264 515.079C407.984 515.164 406.917 515.207 406.064 515.207C405.851 515.207 405.744 515.079 405.744 514.823C405.744 514.567 405.851 514.439 406.064 514.439C407.259 514.439 408.261 514.225 409.072 513.799C409.925 513.329 410.715 512.54 411.44 511.431C412.208 510.279 413.04 508.636 413.936 506.503L427.44 474.631C427.525 474.503 427.675 474.439 427.888 474.439C428.101 474.439 428.229 474.503 428.272 474.631L443.376 506.439C444.827 509.596 446.064 511.729 447.088 512.839C448.112 513.905 449.328 514.439 450.736 514.439ZM486.394 515.207C485.327 515.207 483.279 513.393 480.25 509.767C477.263 506.097 473.658 501.063 469.434 494.663L473.018 493.575C476.73 498.908 479.823 503.068 482.298 506.055C484.815 508.999 487.034 511.132 488.954 512.455C490.874 513.777 492.751 514.439 494.586 514.439C494.714 514.439 494.778 514.567 494.778 514.823C494.778 515.079 494.714 515.207 494.586 515.207H486.394ZM470.266 475.015C473.636 475.015 476.239 475.783 478.074 477.319C479.908 478.855 480.826 480.903 480.826 483.463C480.826 485.724 480.164 487.793 478.842 489.671C477.519 491.505 475.727 492.977 473.466 494.087C471.247 495.153 468.858 495.687 466.298 495.687C466.042 495.687 465.082 495.623 463.418 495.495V510.023C463.418 511.345 463.546 512.305 463.802 512.903C464.058 513.5 464.548 513.905 465.274 514.119C466.042 514.332 467.236 514.439 468.858 514.439C468.986 514.439 469.05 514.567 469.05 514.823C469.05 515.079 468.986 515.207 468.858 515.207C467.535 515.207 466.49 515.185 465.722 515.143L461.306 515.079L456.954 515.143C456.186 515.185 455.098 515.207 453.69 515.207C453.604 515.207 453.562 515.079 453.562 514.823C453.562 514.567 453.604 514.439 453.69 514.439C455.311 514.439 456.506 514.332 457.274 514.119C458.042 513.863 458.575 513.436 458.874 512.839C459.172 512.241 459.322 511.303 459.322 510.023V480.391C459.322 479.111 459.172 478.172 458.874 477.575C458.618 476.977 458.106 476.572 457.338 476.359C456.612 476.103 455.439 475.975 453.818 475.975C453.69 475.975 453.626 475.847 453.626 475.591C453.626 475.335 453.69 475.207 453.818 475.207L456.954 475.271C458.746 475.356 460.196 475.399 461.306 475.399C462.244 475.399 463.119 475.377 463.93 475.335C464.74 475.292 465.423 475.249 465.978 475.207C467.599 475.079 469.028 475.015 470.266 475.015ZM476.474 485.319C476.474 481.991 475.727 479.601 474.234 478.151C472.783 476.7 470.65 475.975 467.833 475.975C466.17 475.975 465.018 476.273 464.378 476.871C463.738 477.468 463.418 478.684 463.418 480.519V493.959C464.442 494.129 465.7 494.215 467.194 494.215C470.522 494.215 472.89 493.489 474.298 492.039C475.748 490.588 476.474 488.348 476.474 485.319ZM496.752 515.207C496.667 515.207 496.624 515.079 496.624 514.823C496.624 514.567 496.667 514.439 496.752 514.439C498.373 514.439 499.547 514.332 500.272 514.119C501.04 513.905 501.552 513.5 501.808 512.903C502.107 512.263 502.256 511.303 502.256 510.023V480.391C502.256 479.111 502.107 478.172 501.808 477.575C501.552 476.977 501.04 476.572 500.272 476.359C499.547 476.103 498.373 475.975 496.752 475.975C496.667 475.975 496.624 475.847 496.624 475.591C496.624 475.335 496.667 475.207 496.752 475.207H522.48C522.864 475.207 523.056 475.399 523.056 475.783L523.184 483.655C523.184 483.783 523.056 483.868 522.8 483.911C522.587 483.911 522.48 483.847 522.48 483.719C522.352 481.457 521.669 479.708 520.432 478.471C519.195 477.191 517.552 476.551 515.504 476.551H511.6C510.107 476.551 508.997 476.679 508.272 476.935C507.547 477.148 507.035 477.532 506.736 478.087C506.48 478.641 506.352 479.516 506.352 480.711V509.767C506.352 510.919 506.48 511.793 506.736 512.391C507.035 512.945 507.525 513.329 508.208 513.543C508.891 513.756 509.957 513.863 511.408 513.863H516.528C518.576 513.863 520.283 513.137 521.648 511.687C523.013 510.236 523.931 508.231 524.4 505.671C524.4 505.585 524.485 505.543 524.656 505.543C524.784 505.543 524.891 505.585 524.976 505.671C525.104 505.713 525.168 505.756 525.168 505.799C524.784 508.487 524.592 511.303 524.592 514.247C524.592 514.588 524.507 514.844 524.336 515.015C524.208 515.143 523.952 515.207 523.568 515.207H496.752ZM519.984 500.295C519.984 498.417 519.515 497.073 518.576 496.263C517.68 495.452 516.165 495.047 514.032 495.047H504.432V493.703H514.224C516.272 493.703 517.723 493.361 518.576 492.679C519.472 491.996 519.92 490.844 519.92 489.223C519.92 489.137 520.048 489.095 520.304 489.095C520.56 489.095 520.688 489.137 520.688 489.223L520.624 494.407C520.624 495.644 520.645 496.583 520.688 497.223L520.752 500.295C520.752 500.38 520.624 500.423 520.368 500.423C520.112 500.423 519.984 500.38 519.984 500.295Z" fill="black"/>
<path d="M106.428 318.975C106.428 315.055 106.036 312.18 105.252 310.351C104.468 308.391 102.965 307.019 100.744 306.235C98.5227 305.451 94.9947 305.059 90.16 305.059C89.768 305.059 89.572 304.667 89.572 303.883C89.572 303.099 89.768 302.707 90.16 302.707L99.764 302.903C106.297 303.164 112.177 303.295 117.404 303.295C120.932 303.295 125.963 303.164 132.496 302.903L143.472 302.707C143.864 302.707 144.06 303.099 144.06 303.883C144.06 304.667 143.864 305.059 143.472 305.059C139.029 305.059 135.697 305.451 133.476 306.235C131.385 306.888 129.948 308.129 129.164 309.959C128.511 311.788 128.184 314.663 128.184 318.583V409.331C128.184 413.251 128.511 416.191 129.164 418.151C129.948 419.98 131.385 421.221 133.476 421.875C135.567 422.528 138.899 422.855 143.472 422.855C143.864 422.855 144.06 423.247 144.06 424.031C144.06 424.815 143.864 425.207 143.472 425.207C138.899 425.207 135.24 425.141 132.496 425.011L117.404 424.815L99.764 425.011C97.412 425.141 94.2107 425.207 90.16 425.207C89.768 425.207 89.572 424.815 89.572 424.031C89.572 423.247 89.768 422.855 90.16 422.855C94.9947 422.855 98.5227 422.528 100.744 421.875C102.965 421.221 104.468 419.98 105.252 418.151C106.036 416.321 106.428 413.381 106.428 409.331V318.975ZM31.556 358.763H116.424V364.251H31.556V358.763ZM21.364 318.583C21.364 314.663 20.972 311.788 20.188 309.959C19.404 308.129 17.9667 306.888 15.876 306.235C13.916 305.451 10.7147 305.059 6.272 305.059C5.88 305.059 5.684 304.667 5.684 303.883C5.684 303.099 5.88 302.707 6.272 302.707L16.856 302.903C22.8667 303.164 27.7013 303.295 31.36 303.295C36.3253 303.295 42.0747 303.164 48.608 302.903L59.388 302.707C59.6493 302.707 59.78 303.099 59.78 303.883C59.78 304.667 59.6493 305.059 59.388 305.059C54.684 305.059 51.2213 305.451 49 306.235C46.7787 307.019 45.2107 308.391 44.296 310.351C43.512 312.18 43.12 315.055 43.12 318.975V409.331C43.12 413.251 43.512 416.191 44.296 418.151C45.08 419.98 46.5827 421.221 48.804 421.875C51.0253 422.528 54.5533 422.855 59.388 422.855C59.6493 422.855 59.78 423.247 59.78 424.031C59.78 424.815 59.6493 425.207 59.388 425.207C54.8147 425.207 51.156 425.141 48.412 425.011L31.36 424.815L16.66 425.011C14.0467 425.141 10.4533 425.207 5.88 425.207C5.61867 425.207 5.488 424.815 5.488 424.031C5.488 423.247 5.61867 422.855 5.88 422.855C10.4533 422.855 13.7853 422.528 15.876 421.875C17.9667 421.221 19.404 419.98 20.188 418.151C20.972 416.191 21.364 413.251 21.364 409.331V318.583ZM221.416 427.559C209.264 427.559 198.418 424.749 188.88 419.131C179.472 413.381 172.154 405.672 166.928 396.003C161.832 386.203 159.284 375.553 159.284 364.055C159.284 350.596 162.681 339.097 169.476 329.559C176.27 319.889 184.96 312.637 195.544 307.803C206.258 302.968 217.169 300.551 228.276 300.551C240.689 300.551 251.6 303.491 261.008 309.371C270.416 315.12 277.602 322.764 282.568 332.303C287.664 341.841 290.212 351.968 290.212 362.683C290.212 374.573 287.076 385.484 280.804 395.415C274.532 405.345 266.104 413.185 255.52 418.935C245.066 424.684 233.698 427.559 221.416 427.559ZM227.884 422.659C235.201 422.659 241.734 420.568 247.484 416.387C253.364 412.075 257.937 405.868 261.204 397.767C264.47 389.535 266.104 379.735 266.104 368.367C266.104 356.345 264.274 345.631 260.616 336.223C256.957 326.684 251.665 319.236 244.74 313.879C237.814 308.521 229.713 305.843 220.436 305.843C208.545 305.843 199.398 310.351 192.996 319.367C186.593 328.252 183.392 340.731 183.392 356.803C183.392 369.477 185.286 380.845 189.076 390.907C192.996 400.837 198.288 408.612 204.952 414.231C211.746 419.849 219.39 422.659 227.884 422.659ZM324.634 307.215L330.318 307.607L328.162 400.315C328.032 407.371 329.404 412.924 332.278 416.975C335.284 420.895 339.465 422.855 344.822 422.855C345.214 422.855 345.41 423.247 345.41 424.031C345.41 424.815 345.214 425.207 344.822 425.207C341.294 425.207 338.55 425.141 336.59 425.011L325.81 424.815L313.462 425.011C311.372 425.141 308.562 425.207 305.034 425.207C304.642 425.207 304.446 424.815 304.446 424.031C304.446 423.247 304.642 422.855 305.034 422.855C310.392 422.855 314.638 420.829 317.774 416.779C320.91 412.728 322.544 407.24 322.674 400.315L324.634 307.215ZM463.01 422.855C463.272 422.855 463.402 423.247 463.402 424.031C463.402 424.815 463.272 425.207 463.01 425.207C458.568 425.207 455.04 425.141 452.426 425.011L437.922 424.815L423.222 425.011C420.74 425.141 417.342 425.207 413.03 425.207C412.638 425.207 412.442 424.815 412.442 424.031C412.442 423.247 412.638 422.855 413.03 422.855C417.212 422.855 420.282 422.528 422.242 421.875C424.333 421.091 425.705 419.784 426.358 417.955C427.012 416.125 427.208 413.251 426.946 409.331L422.438 322.307L432.434 306.627L382.454 423.835C382.193 424.357 381.67 424.619 380.886 424.619C380.102 424.619 379.58 424.357 379.318 423.835L324.242 318.975C321.629 314.14 318.885 310.612 316.01 308.391C313.266 306.169 310.065 305.059 306.406 305.059C306.014 305.059 305.818 304.667 305.818 303.883C305.818 303.099 306.014 302.707 306.406 302.707L315.618 302.903C317.448 303.033 319.8 303.099 322.674 303.099L333.062 302.903C334.238 302.772 335.741 302.707 337.57 302.707C339.269 302.707 340.576 303.295 341.49 304.471C342.405 305.647 344.104 308.456 346.586 312.899L390.49 395.219L380.69 412.859L426.554 307.607C427.338 305.777 428.122 304.536 428.906 303.883C429.821 303.099 430.997 302.707 432.434 302.707C433.61 302.707 434.917 302.772 436.354 302.903C437.922 303.033 439.686 303.099 441.646 303.099L453.21 302.903C455.04 302.772 457.653 302.707 461.05 302.707C461.442 302.707 461.638 303.099 461.638 303.883C461.638 304.667 461.442 305.059 461.05 305.059C454.909 305.059 450.466 306.3 447.722 308.783C444.978 311.265 443.737 315.12 443.998 320.347L448.702 409.331C448.964 413.381 449.421 416.321 450.074 418.151C450.858 419.98 452.165 421.221 453.994 421.875C455.954 422.528 458.96 422.855 463.01 422.855ZM475.833 425.207C475.441 425.207 475.245 424.815 475.245 424.031C475.245 423.247 475.441 422.855 475.833 422.855C480.014 422.855 483.02 422.528 484.849 421.875C486.809 421.221 488.116 419.98 488.769 418.151C489.422 416.191 489.749 413.251 489.749 409.331V318.583C489.749 314.663 489.422 311.788 488.769 309.959C488.116 308.129 486.809 306.888 484.849 306.235C482.889 305.451 479.884 305.059 475.833 305.059C475.441 305.059 475.245 304.667 475.245 303.883C475.245 303.099 475.441 302.707 475.833 302.707H558.937C560.244 302.707 560.897 303.295 560.897 304.471L561.289 330.539C561.289 330.8 560.897 330.996 560.113 331.127C559.46 331.257 559.068 331.127 558.937 330.735C556.846 323.156 553.318 317.537 548.353 313.879C543.388 310.22 536.854 308.391 528.753 308.391H522.873C518.953 308.391 516.078 309.24 514.249 310.939C512.42 312.637 511.505 315.251 511.505 318.779V408.547C511.505 412.336 512.224 415.145 513.661 416.975C515.098 418.804 517.385 419.719 520.521 419.719H526.989C537.181 419.719 545.348 417.628 551.489 413.447C557.63 409.265 562.138 402.797 565.013 394.043C565.013 393.781 565.274 393.651 565.797 393.651C566.189 393.651 566.516 393.781 566.777 394.043C567.169 394.173 567.365 394.304 567.365 394.435C566.058 404.627 565.405 413.904 565.405 422.267C565.405 423.312 565.209 424.096 564.817 424.619C564.425 425.011 563.641 425.207 562.465 425.207H475.833ZM551.489 381.499C551.489 376.141 549.398 371.96 545.217 368.955C541.166 365.819 535.286 364.251 527.577 364.251H501.117V358.763H527.773C535.352 358.763 541.166 357.456 545.217 354.843C549.268 352.229 551.293 348.571 551.293 343.867C551.293 343.475 551.62 343.279 552.273 343.279C553.057 343.279 553.449 343.475 553.449 343.867L553.253 361.507L553.449 370.915C553.71 375.357 553.841 378.885 553.841 381.499C553.841 381.76 553.449 381.891 552.665 381.891C551.881 381.891 551.489 381.76 551.489 381.499Z" fill="black"/>
<path d="M310.5 123.707V69.7067L673 1.20667V594.207L310.5 564.707V520.707" stroke="black" stroke-width="2" stroke-linecap="round"/>
</svg>
